<?xml version="1.0" encoding="UTF-8" standalone="no"?>
<!-- Created with Inkscape (http://www.inkscape.org/) -->

<svg
   width="132.12585mm"
   height="59.679825mm"
   viewBox="0 0 132.12585 59.679825"
   version="1.1"
   id="svg5"
   inkscape:version="1.1 (c68e22c387, 2021-05-23)"
   sodipodi:docname="logoiinowo.svg"
   xmlns:inkscape="http://www.inkscape.org/namespaces/inkscape"
   xmlns:sodipodi="http://sodipodi.sourceforge.net/DTD/sodipodi-0.dtd"
   xmlns:xlink="http://www.w3.org/1999/xlink"
   xmlns="http://www.w3.org/2000/svg"
   xmlns:svg="http://www.w3.org/2000/svg">
  <sodipodi:namedview
     id="namedview7"
     pagecolor="#ffffff"
     bordercolor="#666666"
     borderopacity="1.0"
     inkscape:pageshadow="2"
     inkscape:pageopacity="0.0"
     inkscape:pagecheckerboard="0"
     inkscape:document-units="mm"
     showgrid="false"
     fit-margin-top="0"
     fit-margin-left="0"
     fit-margin-right="0"
     fit-margin-bottom="0"
     inkscape:zoom="0.71446409"
     inkscape:cx="188.95281"
     inkscape:cy="-74.881301"
     inkscape:window-width="1920"
     inkscape:window-height="991"
     inkscape:window-x="-9"
     inkscape:window-y="-9"
     inkscape:window-maximized="1"
     inkscape:current-layer="layer1" />
  <defs
     id="defs2">
    <linearGradient
       inkscape:collect="always"
       id="linearGradient958">
      <stop
         style="stop-color:#ff00aa;stop-opacity:1"
         offset="0"
         id="stop954" />
      <stop
         style="stop-color:#6c21eb;stop-opacity:1"
         offset="1"
         id="stop956" />
    </linearGradient>
    <linearGradient
       inkscape:collect="always"
       xlink:href="#linearGradient958"
       id="linearGradient1730"
       x1="182.19951"
       y1="129.61346"
       x2="68.509972"
       y2="156.64713"
       gradientUnits="userSpaceOnUse" />
  </defs>
  <g
     inkscape:label="Capa 1"
     inkscape:groupmode="layer"
     id="layer1"
     transform="translate(-36.199907,-122.37452)">
    <path
       style="fill:url(#linearGradient1730);fill-opacity:1;stroke-width:0.264583"
       d="m 61.274609,181.81028 c -6.752285,-0.78609 -12.550737,-3.66267 -17.165488,-8.51568 -3.773435,-3.96827 -6.081046,-8.441 -7.332486,-14.21219 -0.655459,-3.02275 -0.780504,-9.75073 -0.228665,-12.30313 1.33149,-6.15849 4.088645,-11.29172 8.279197,-15.41409 2.777068,-2.73187 4.711151,-4.11769 8.037515,-5.75908 9.422099,-4.6493 20.165518,-4.11033 29.633334,1.48662 4.727887,2.79491 7.982003,5.43085 14.903822,12.07256 l 4.849652,4.6534 3.08785,-3.03724 c 9.43322,-9.27862 15.28602,-13.54917 22.24976,-16.23477 13.18982,-5.08671 28.29267,-0.98371 35.45998,9.63345 4.01598,5.94899 6.02234,14.6883 5.02249,21.87694 -1.51801,10.91406 -8.94946,20.10612 -19.45063,24.05875 -3.00999,1.13296 -6.55377,1.72075 -10.37432,1.72075 -6.95432,0 -12.64928,-1.8848 -19.2361,-6.36638 -4.03319,-2.74413 -7.23582,-5.51936 -13.67295,-11.84826 l -3.08962,-3.03768 -4.451012,4.24852 c -2.448053,2.33668 -5.476437,5.12415 -6.729745,6.19439 -7.679275,6.55753 -14.719517,9.8887 -22.804578,10.79024 -2.849856,0.31777 -4.209174,0.31639 -6.988006,-0.007 z m 9.714032,-12.55751 c 0.945885,-0.23902 2.925913,-1.00367 4.400063,-1.69921 4.833599,-2.28062 7.980707,-4.69045 14.253062,-10.91399 l 4.497917,-4.46292 -4.233333,-4.10531 c -7.385614,-7.16227 -11.321762,-10.16417 -15.631145,-11.92109 -5.557589,-2.26581 -10.73758,-2.1841 -15.721981,0.248 -3.021837,1.47448 -6.293443,4.68477 -7.748126,7.60291 -2.297118,4.60808 -2.637097,9.39582 -1.011591,14.24569 1.016484,3.03279 1.80164,4.40174 3.710909,6.47012 2.39853,2.59841 5.200949,4.13168 9.035732,4.94366 1.626248,0.34434 6.379967,0.11485 8.448493,-0.40786 z m 72.469699,-0.26658 c 5.34564,-1.77943 9.38468,-5.83834 11.3059,-11.36153 0.65305,-1.8774 0.7351,-2.48447 0.73277,-5.42142 -0.004,-5.3647 -1.36115,-9.04583 -4.61365,-12.51633 -2.06559,-2.20404 -3.77515,-3.30158 -6.73742,-4.32542 -1.88722,-0.65228 -2.48951,-0.73182 -5.55625,-0.73377 -2.77716,-0.002 -3.84087,0.1124 -5.5232,0.59285 -4.15354,1.18617 -8.28861,3.56686 -12.90726,7.43111 -2.67366,2.23696 -9.74767,9.16895 -9.74767,9.55198 0,0.30551 8.96657,8.86951 11.24479,10.73995 4.18814,3.43848 8.43859,5.69976 12.43542,6.61576 2.53157,0.5802 6.66078,0.32751 9.36657,-0.57318 z"
       id="path854" />
  </g>
</svg>
